<svg width="22" height="22" viewBox="0 0 22 22" fill="none" xmlns="http://www.w3.org/2000/svg">
<path d="M7.3475 4.16749L7.85 1.99999H13.85L12.35 8.74999H16.25L14.3825 11.1875L15.455 12.26L18.3575 8.45749C18.4363 8.35092 18.4854 8.22537 18.4999 8.09362C18.5144 7.96188 18.4937 7.82865 18.44 7.70749C18.3826 7.57193 18.2865 7.45627 18.1638 7.37491C18.0411 7.29356 17.8972 7.25011 17.75 7.24999H14.1875L15.5 1.41499C15.5248 1.30431 15.5242 1.18943 15.4983 1.07901C15.4723 0.968583 15.4216 0.865492 15.35 0.777493C15.2778 0.688474 15.1862 0.617176 15.0822 0.569072C14.9782 0.520967 14.8646 0.497336 14.75 0.499993H7.25C7.07766 0.495386 6.90899 0.550295 6.77239 0.655479C6.63578 0.760662 6.53959 0.909696 6.5 1.07749L6.095 2.91499L7.3475 4.16749ZM21.5 20.4425L14.5175 13.46L13.4525 12.3875L6.95 5.89249L5.6975 4.63999L1.5575 0.499993L0.5 1.55749L5.3 6.36499L4.25 10.8275C4.22353 10.9393 4.22311 11.0557 4.24875 11.1677C4.27439 11.2796 4.32541 11.3842 4.39789 11.4734C4.47036 11.5625 4.56234 11.6338 4.66674 11.6818C4.77114 11.7297 4.88516 11.7531 5 11.75H8.6225L7.25 20.6375C7.22522 20.8022 7.25601 20.9705 7.33749 21.1159C7.41897 21.2612 7.54652 21.3752 7.7 21.44C7.79533 21.4787 7.89712 21.4991 8 21.5C8.11454 21.4997 8.22749 21.4732 8.3302 21.4225C8.4329 21.3718 8.52263 21.2983 8.5925 21.2075L13.6025 14.66L20.4425 21.5L21.5 20.4425ZM5.945 10.25L6.5525 7.60999L9.1925 10.25H5.945ZM9.185 17.96L10.25 11.2775L12.5 13.5875L9.185 17.96Z" fill="white"/>
</svg>
