<svg width="20" height="20" viewBox="0 0 20 20" fill="none" xmlns="http://www.w3.org/2000/svg">
    <path d="M15.9185 12.3201C15.6595 12.5711 15.5405 12.9341 15.5995 13.2901L16.4885 18.2101C16.5635 18.6271 16.3875 19.0491 16.0385 19.2901C15.6965 19.5401 15.2415 19.5701 14.8685 19.3701L10.4395 17.0601C10.2855 16.9781 10.1145 16.9341 9.93951 16.9291H9.66851C9.57451 16.9431 9.48251 16.9731 9.39851 17.0191L4.96851 19.3401C4.74951 19.4501 4.50151 19.4891 4.25851 19.4501C3.66651 19.3381 3.27151 18.7741 3.36851 18.1791L4.25851 13.2591C4.31751 12.9001 4.19851 12.5351 3.93951 12.2801L0.32851 8.7801C0.0265096 8.4871 -0.0784904 8.0471 0.0595096 7.6501C0.19351 7.2541 0.53551 6.9651 0.94851 6.9001L5.91851 6.1791C6.29651 6.1401 6.62851 5.9101 6.79851 5.5701L8.98851 1.0801C9.04051 0.980099 9.10751 0.888099 9.18851 0.810099L9.27851 0.740099C9.32551 0.688099 9.37951 0.645099 9.43951 0.610099L9.54851 0.570099L9.71851 0.500099H10.1395C10.5155 0.539099 10.8465 0.764099 11.0195 1.1001L13.2385 5.5701C13.3985 5.8971 13.7095 6.1241 14.0685 6.1791L19.0385 6.9001C19.4585 6.9601 19.8095 7.2501 19.9485 7.6501C20.0795 8.0511 19.9665 8.4911 19.6585 8.7801L15.9185 12.3201Z" fill="#010101"/>
</svg>
