<svg width="40" height="40" viewBox="0 0 40 40" fill="none" xmlns="http://www.w3.org/2000/svg">
<rect width="40" height="40" rx="20" fill="#FF6600"/>
<path d="M20 23C21.0609 23 22.0783 22.5786 22.8284 21.8284C23.5786 21.0783 24 20.0609 24 19V14C24 12.9391 23.5786 11.9217 22.8284 11.1716C22.0783 10.4214 21.0609 10 20 10C18.9391 10 17.9217 10.4214 17.1716 11.1716C16.4214 11.9217 16 12.9391 16 14V19C16 20.0609 16.4214 21.0783 17.1716 21.8284C17.9217 22.5786 18.9391 23 20 23Z" fill="white"/>
<path d="M27 19C27 18.7348 26.8946 18.4804 26.7071 18.2929C26.5196 18.1054 26.2652 18 26 18C25.7348 18 25.4804 18.1054 25.2929 18.2929C25.1054 18.4804 25 18.7348 25 19C25 20.3261 24.4732 21.5979 23.5355 22.5355C22.5979 23.4732 21.3261 24 20 24C18.6739 24 17.4021 23.4732 16.4645 22.5355C15.5268 21.5979 15 20.3261 15 19C15 18.7348 14.8946 18.4804 14.7071 18.2929C14.5196 18.1054 14.2652 18 14 18C13.7348 18 13.4804 18.1054 13.2929 18.2929C13.1054 18.4804 13 18.7348 13 19C13.002 20.6818 13.6094 22.3068 14.7112 23.5775C15.813 24.8482 17.3354 25.6797 19 25.92V28H16.89C16.654 28 16.4276 28.0938 16.2607 28.2607C16.0938 28.4276 16 28.654 16 28.89V29.11C16 29.346 16.0938 29.5724 16.2607 29.7393C16.4276 29.9062 16.654 30 16.89 30H23.11C23.346 30 23.5724 29.9062 23.7393 29.7393C23.9062 29.5724 24 29.346 24 29.11V28.89C24 28.654 23.9062 28.4276 23.7393 28.2607C23.5724 28.0938 23.346 28 23.11 28H21V25.92C22.6646 25.6797 24.187 24.8482 25.2888 23.5775C26.3906 22.3068 26.998 20.6818 27 19Z" fill="white"/>
</svg>
